<svg xmlns="http://www.w3.org/2000/svg" viewBox="0 0 100 100" width="100" height="100">
  <!-- Gear - AI Agent Development -->
  <defs>
    <linearGradient id="cyanGrad" x1="0%" y1="0%" x2="100%" y2="100%">
      <stop offset="0%" style="stop-color:#00eafa;stop-opacity:1" />
      <stop offset="100%" style="stop-color:#00d4e0;stop-opacity:1" />
    </linearGradient>
  </defs>
  
  <!-- Gear teeth -->
  <path d="M 50 10 L 55 20 L 60 10 L 70 15 L 72 25 L 82 25 L 85 30 L 80 40 L 90 45 L 90 55 L 80 60 L 85 70 L 82 75 L 72 75 L 70 85 L 60 90 L 55 80 L 50 90 L 45 80 L 40 90 L 30 85 L 28 75 L 18 75 L 15 70 L 20 60 L 10 55 L 10 45 L 20 40 L 15 30 L 18 25 L 28 25 L 30 15 L 40 10 L 45 20 Z" 
        fill="url(#cyanGrad)"/>
  
  <!-- Center hole -->
  <circle cx="50" cy="50" r="15" fill="#ffffff"/>
  
  <!-- Inner circle -->
  <circle cx="50" cy="50" r="18" fill="none" stroke="url(#cyanGrad)" stroke-width="3"/>
  
  <!-- Highlights -->
  <path d="M 45 25 Q 50 22, 55 25" 
        fill="none" 
        stroke="#ffffff" 
        stroke-width="2" 
        opacity="0.3"
        stroke-linecap="round"/>
</svg>